<svg width="616" height="450" viewBox="0 0 616 450" fill="none" xmlns="http://www.w3.org/2000/svg">
<path d="M3.07845e-07 97.9999C1.62725e-07 51.8022 9.01656e-08 28.7034 14.3518 14.3516C28.7035 -0.000120253 51.8024 -0.000120326 98 -0.000120471L613 -0.000122089C659.198 -0.000122234 682.296 -0.000122306 696.648 14.3516C711 28.7034 711 51.8022 711 97.9999L711 352C711 398.198 711 421.296 696.648 435.648C682.296 450 659.198 450 613 450L98 450C51.8024 450 28.7035 450 14.3518 435.648C1.32341e-06 421.296 1.25085e-06 398.198 1.10573e-06 352L3.07845e-07 97.9999Z" fill="#53D59F"/>
</svg>
